<svg width="24" height="24" viewBox="0 0 24 24" fill="none" xmlns="http://www.w3.org/2000/svg">
<rect width="24" height="24" rx="6" fill="#2563EB"/>
<path d="M12 4C16.4183 4 20 7.58172 20 12C20 16.4183 16.4183 20 12 20C7.58172 20 4 16.4183 4 12C4 7.58172 7.58172 4 12 4Z" fill="white"/>
<path d="M12 6C14.2091 6 16 7.79086 16 10C16 12.2091 14.2091 14 12 14C9.79086 14 8 12.2091 8 10C8 7.79086 9.79086 6 12 6Z" fill="#2563EB"/>
<path d="M12 15.5C13.6569 15.5 15 16.8431 15 18.5C15 20.1569 13.6569 21.5 12 21.5C10.3431 21.5 9 20.1569 9 18.5C9 16.8431 10.3431 15.5 12 15.5Z" fill="white"/>
</svg>